<?xml version="1.0" encoding="utf-8"?>
<!-- Generator: Adobe Illustrator 15.0.2, SVG Export Plug-In . SVG Version: 6.00 Build 0)  -->
<!DOCTYPE svg PUBLIC "-//W3C//DTD SVG 1.1//EN" "http://www.w3.org/Graphics/SVG/1.1/DTD/svg11.dtd">
<svg version="1.1" id="Layer_1" xmlns="http://www.w3.org/2000/svg" xmlns:xlink="http://www.w3.org/1999/xlink" x="0px" y="0px"
	 width="331.333px" height="460.667px" viewBox="0 0 331.333 460.667" enable-background="new 0 0 331.333 460.667"
	 xml:space="preserve">
<rect x="7.234" y="214.135" opacity="0.15" fill="#FFFFFF" width="318.591" height="240.451"/>
<rect x="152.23" y="38.347" opacity="0.7" fill="#F8991D" width="155.993" height="32.81"/>
<rect x="134.231" y="77.388" opacity="0.7" fill="#F8991D" width="173.992" height="32.81"/>
<rect x="213.727" y="116.816" opacity="0.7" fill="#F8991D" width="94.496" height="32.81"/>
<rect x="252.725" y="156.694" opacity="0.7" fill="#F8991D" width="55.498" height="32.81"/>
<rect x="107.232" y="272.148" opacity="0.35" fill="#666766" width="200.991" height="32.81"/>
<rect x="177.729" y="311.189" opacity="0.35" fill="#666766" width="130.494" height="32.81"/>
<rect x="171.729" y="350.617" opacity="0.35" fill="#666766" width="136.494" height="32.811"/>
<rect x="207.727" y="390.496" opacity="0.35" fill="#666766" width="100.496" height="32.809"/>
<g>
	<g>
		<defs>
			<rect id="SVGID_1_" x="171.729" y="116.088" width="35" height="35"/>
		</defs>
		<clipPath id="SVGID_2_">
			<use xlink:href="#SVGID_1_"  overflow="visible"/>
		</clipPath>
		<g clip-path="url(#SVGID_2_)">
			<defs>
				<rect id="SVGID_3_" x="171.729" y="116.088" width="35" height="35"/>
			</defs>
			<clipPath id="SVGID_4_">
				<use xlink:href="#SVGID_3_"  overflow="visible"/>
			</clipPath>
			<path clip-path="url(#SVGID_4_)" fill="none" stroke="#333333" stroke-width="0.75" stroke-miterlimit="10" d="M177.307,140.957
				c1.93,5.411,11.922,4.741,11.922,4.741s9.994,0.67,11.924-4.741c-2.744-1.478-7.111-2.447-11.924-2.447
				C184.418,138.51,180.051,139.479,177.307,140.957"/>
			<path clip-path="url(#SVGID_4_)" fill="none" stroke="#333333" stroke-width="0.5" stroke-miterlimit="10" d="M201.143,127.391
				c-2.178-0.222-5.717-0.37-8.521-2.842c-2.805-2.474-3.393-2.03-3.393-2.03s-0.592-0.443-3.396,2.03
				c-2.807,2.472-6.352,2.62-8.529,2.842s-2.029,1.107-2.578,3.579c-0.549,2.474-2.402,3.139-1.809,3.729
				c0.41,0.409,2.311,1.973,3.438,2.892c2.891-1.747,7.539-2.909,12.875-2.909c5.338,0,9.986,1.162,12.877,2.908
				c1.123-0.92,3.018-2.481,3.43-2.891c0.594-0.591-1.264-1.256-1.812-3.729C203.174,128.498,203.321,127.612,201.143,127.391"/>
			<path clip-path="url(#SVGID_4_)" fill="none" stroke="#333333" stroke-width="0.75" stroke-miterlimit="10" d="M201.262,138.285
				c-2.738-1.514-7.156-2.511-12.033-2.511c-4.875,0-9.293,0.997-12.031,2.511v1.573c2.91-1.484,7.186-2.442,12.031-2.442
				c4.848,0,9.123,0.958,12.033,2.442V138.285z"/>
			<polygon clip-path="url(#SVGID_4_)" fill="none" stroke="#333333" stroke-width="0.5" stroke-miterlimit="10" points="
				191.936,133.204 189.225,131.246 186.516,133.219 187.553,129.997 184.84,127.992 188.19,127.992 189.225,124.808 
				190.26,127.992 193.61,127.992 190.901,130 			"/>
		</g>
	</g>
</g>
<g>
	<g>
		<g>
			<defs>
				<rect id="SVGID_5_" x="113.515" y="35.893" width="35.046" height="35.046"/>
			</defs>
			<clipPath id="SVGID_6_">
				<use xlink:href="#SVGID_5_"  overflow="visible"/>
			</clipPath>
			<g clip-path="url(#SVGID_6_)">
				<defs>
					<rect id="SVGID_7_" x="113.515" y="35.893" width="35.046" height="35.046"/>
				</defs>
				<clipPath id="SVGID_8_">
					<use xlink:href="#SVGID_7_"  overflow="visible"/>
				</clipPath>
			</g>
		</g>
	</g>
	<g>
		<g>
			<defs>
				<rect id="SVGID_9_" x="113.515" y="35.893" width="35.046" height="35.046"/>
			</defs>
			<clipPath id="SVGID_10_">
				<use xlink:href="#SVGID_9_"  overflow="visible"/>
			</clipPath>
			<g clip-path="url(#SVGID_10_)">
				<defs>
					<rect id="SVGID_11_" x="113.515" y="35.893" width="35.046" height="35.046"/>
				</defs>
				<clipPath id="SVGID_12_">
					<use xlink:href="#SVGID_11_"  overflow="visible"/>
				</clipPath>
				<path clip-path="url(#SVGID_12_)" fill="none" stroke="#333333" stroke-width="0.75" stroke-miterlimit="10" d="M131.187,36.355
					c-6.292,0-11.392,5.103-11.392,11.393c0,4.768,6.545,16.537,9.713,21.956c0.35,0.596,0.986,0.965,1.678,0.965
					s1.33-0.365,1.68-0.964c3.168-5.417,9.715-17.189,9.715-21.957C142.581,41.458,137.477,36.355,131.187,36.355"/>
				<path clip-path="url(#SVGID_12_)" fill="none" stroke="#333333" stroke-width="0.75" stroke-miterlimit="10" d="M133.637,58.306
					h-4.947c-0.232,0-0.422,0.19-0.422,0.423c0,0.234,0.189,0.422,0.422,0.422h4.947c0.232,0,0.422-0.188,0.422-0.422
					C134.059,58.496,133.87,58.306,133.637,58.306"/>
				<path clip-path="url(#SVGID_12_)" fill="none" stroke="#333333" stroke-width="0.75" stroke-miterlimit="10" d="M133.637,59.794
					h-4.947c-0.232,0-0.422,0.189-0.422,0.424c0,0.232,0.189,0.422,0.422,0.422h1.023c0.042,0.289,0.286,0.512,0.586,0.512h1.773
					c0.302,0,0.547-0.223,0.587-0.512h0.978c0.232,0,0.422-0.189,0.422-0.422C134.059,59.983,133.87,59.794,133.637,59.794"/>
				<path clip-path="url(#SVGID_12_)" fill="none" stroke="#333333" stroke-width="0.75" stroke-miterlimit="10" d="M131.187,42.335
					c-0.07,0-0.138,0.009-0.206,0.011l0.182,2.48h-2.835l-0.435,3.503l-2.961-0.825c-0.074,0.39-0.117,0.792-0.117,1.204
					c0,1.599,0.997,3.268,1.303,3.743c-0.008-0.01,0.451,0.718,0.451,0.718c0.803,1.256,1.56,2.445,1.738,3.896
					c0.037,0.31,0.3,0.542,0.611,0.542h4.635c0.311,0,0.573-0.232,0.611-0.541c0.193-1.564,0.982-2.831,1.816-4.171l0.283-0.455
					c0.301-0.464,1.296-2.133,1.296-3.733C137.56,45.195,134.7,42.335,131.187,42.335"/>
			</g>
		</g>
	</g>
	<g>
		<g>
			<defs>
				<rect id="SVGID_13_" x="113.515" y="35.893" width="35.046" height="35.046"/>
			</defs>
			<clipPath id="SVGID_14_">
				<use xlink:href="#SVGID_13_"  overflow="visible"/>
			</clipPath>
			<g clip-path="url(#SVGID_14_)">
				<defs>
					<rect id="SVGID_15_" x="113.515" y="35.893" width="35.046" height="35.046"/>
				</defs>
				<clipPath id="SVGID_16_">
					<use xlink:href="#SVGID_15_"  overflow="visible"/>
				</clipPath>
			</g>
		</g>
	</g>
</g>
<rect x="159.334" y="49.752" fill="none" width="27" height="14.915"/>
<text transform="matrix(1 0 0 1 159.3335 59.0991)" font-family="'Helvetica'" font-size="13">13</text>
<g>
	<g id="Layer_3_2_">
	</g>
	<g id="Layer_1_2_">
		<path fill="#010101" d="M243.915,166.347"/>
		<polyline fill="none" stroke="#333333" stroke-width="0.5" stroke-miterlimit="10" points="222.249,169.742 223.69,168.236 
			225.803,168.573 227.436,167.228 228.686,167.612 229.038,167.02 		"/>
		<g>
			<path fill="none" d="M228.694,167.105c-0.426-0.38-1.07-0.653-1.67-0.653c0,0-2.301,0-4.578,0v5.311c4.797,0,10,0,10,0
				c0.617,0,1.004-0.169,0.166-0.975C231.676,169.887,229.29,167.637,228.694,167.105z"/>
			<path fill="none" d="M216.583,167.258c-0.336,0.466-1.758,2.307-2.361,3.143c-0.689,0.956-0.355,1.362,0.355,1.362
				c0.404,0,3.613,0,7.201,0v-5.311c-1.773,0-3.393,0-3.713,0C217.297,166.452,217.016,166.653,216.583,167.258z"/>
			<path fill="none" d="M214.325,177.214c-1.287,0-2.336,1.048-2.336,2.334c0,1.289,1.049,2.336,2.336,2.336
				c1.289,0,2.336-1.048,2.336-2.336C216.661,178.262,215.614,177.214,214.325,177.214z"/>
			<path fill="none" d="M237.686,177.214c-1.289,0-2.336,1.048-2.336,2.334c0,1.289,1.047,2.336,2.336,2.336
				c1.287,0,2.334-1.048,2.334-2.336C240.02,178.262,238.973,177.214,237.686,177.214z"/>
			<path fill="none" stroke="#333333" stroke-width="0.75" stroke-miterlimit="10" d="M242.346,172.877l-1.842,0.74l-1.102-1.584
				c-0.02-0.004-0.041-0.009-0.061-0.013l0.059,0.013l-1.6-2.227l-1.6,1.554c-3.02-2.856-5.254-4.998-6.715-6.338
				c-1.037-0.948-1.723-1.046-2.078-1.046c-0.338,0-9,0-10.01,0c-1.008,0-1.562,0.188-2.078,1.046
				c-0.514,0.857-3.34,4.22-3.973,5.347c-4.195,0.873-4.809,1.672-4.809,2.919c0,0.707,0,5.373,0,5.373
				c0,0.675,1.689,2.445,2.336,2.445h1.051c0.641,1.814,2.365,3.115,4.4,3.115c2.033,0,3.758-1.301,4.4-3.115h14.559
				c0.641,1.814,2.367,3.115,4.4,3.115c2.129,0,3.92-1.426,4.484-3.371c0.754-0.517,1.744-1.674,1.744-2.188
				c0,0-0.863-3.474-0.863-4.18C243.051,173.938,242.809,174.1,242.346,172.877z M221.778,171.763c-3.588,0-6.797,0-7.201,0
				c-0.711,0-1.045-0.406-0.355-1.362c0.604-0.836,2.025-2.677,2.361-3.143c0.434-0.604,0.715-0.806,1.482-0.806
				c0.32,0,1.939,0,3.713,0V171.763L221.778,171.763z M232.446,171.763c0,0-5.203,0-10,0v-5.311c2.277,0,4.578,0,4.578,0
				c0.6,0,1.242,0.272,1.67,0.653c0.596,0.531,2.984,2.781,3.918,3.683C233.45,171.595,233.065,171.763,232.446,171.763z"/>
		</g>
		<g>
			<path fill="none" stroke="#333333" stroke-miterlimit="10" d="M237.686,182.301c-1.289,0-2.336-1.05-2.336-2.337
				c0-1.288,1.047-2.336,2.336-2.336c1.287,0,2.336,1.049,2.336,2.336S238.973,182.301,237.686,182.301z"/>
			<path fill="none" stroke="#333333" stroke-miterlimit="10" d="M214.325,182.301c-1.287,0-2.336-1.05-2.336-2.337
				c0-1.288,1.049-2.336,2.336-2.336c1.289,0,2.336,1.049,2.336,2.336S215.614,182.301,214.325,182.301z"/>
		</g>
	</g>
</g>
<g>
	<g>
		<g>
			<defs>
				<rect id="SVGID_17_" x="93.758" y="79.714" width="32.947" height="28.158"/>
			</defs>
			<clipPath id="SVGID_18_">
				<use xlink:href="#SVGID_17_"  overflow="visible"/>
			</clipPath>
			<g clip-path="url(#SVGID_18_)">
				<defs>
					<rect id="SVGID_19_" x="93.758" y="79.714" width="32.947" height="28.158"/>
				</defs>
				<clipPath id="SVGID_20_">
					<use xlink:href="#SVGID_19_"  overflow="visible"/>
				</clipPath>
			</g>
			<g clip-path="url(#SVGID_18_)">
				<defs>
					
						<rect id="SVGID_21_" x="108.732" y="93.5" transform="matrix(-0.2452 -0.9695 0.9695 -0.2452 44.9425 228.5657)" width="5.441" height="6.572"/>
				</defs>
				<clipPath id="SVGID_22_">
					<use xlink:href="#SVGID_21_"  overflow="visible"/>
				</clipPath>
			</g>
			<g clip-path="url(#SVGID_18_)">
				<defs>
					<rect id="SVGID_23_" x="93.758" y="79.714" width="32.947" height="28.158"/>
				</defs>
				<clipPath id="SVGID_24_">
					<use xlink:href="#SVGID_23_"  overflow="visible"/>
				</clipPath>
			</g>
		</g>
	</g>
	<g>
		<g>
			<defs>
				<rect id="SVGID_25_" x="93.758" y="79.714" width="32.947" height="28.158"/>
			</defs>
			<clipPath id="SVGID_26_">
				<use xlink:href="#SVGID_25_"  overflow="visible"/>
			</clipPath>
			<g clip-path="url(#SVGID_26_)">
				<defs>
					<rect id="SVGID_27_" x="93.758" y="79.714" width="32.947" height="28.158"/>
				</defs>
				<clipPath id="SVGID_28_">
					<use xlink:href="#SVGID_27_"  overflow="visible"/>
				</clipPath>
				<path clip-path="url(#SVGID_28_)" fill="none" stroke="#333333" stroke-width="0.5" stroke-miterlimit="10" d="M110.369,80.351
					c0.358,0.037,0.71,0.223,0.91,0.485c0.028,0.035,2.298,3.829,6.37,10.654c3.48,5.827,6.758,11.315,7.282,12.195
					c0.523,0.879,0.973,1.635,0.995,1.678c0.073,0.144,0.117,0.278,0.139,0.413c0.011,0.076,0.014,0.248,0.003,0.324
					c-0.056,0.441-0.338,0.834-0.737,1.021c-0.114,0.052-0.237,0.087-0.399,0.107c-0.08,0.011-0.632,0.011-14.698,0.011
					c-14.068,0-14.619,0-14.699-0.011c-0.162-0.021-0.285-0.056-0.399-0.107c-0.399-0.187-0.683-0.579-0.737-1.021
					c-0.01-0.076-0.008-0.248,0.003-0.324c0.021-0.135,0.065-0.27,0.138-0.413c0.021-0.043,0.471-0.799,0.996-1.678
					c0.523-0.88,3.801-6.368,7.282-12.195c4.073-6.825,6.341-10.619,6.37-10.654C109.443,80.501,109.917,80.307,110.369,80.351
					L110.369,80.351z"/>
				<path clip-path="url(#SVGID_28_)" fill="none" stroke="#333333" stroke-width="0.5" stroke-miterlimit="10" d="M110.361,86.632
					c0.119,0.012,0.25,0.052,0.339,0.1c0.068,0.035,0.152,0.1,0.232,0.178c0.158,0.151,0.277,0.32,0.484,0.68
					c0.096,0.168,8.588,14.571,8.764,14.864c0.18,0.302,0.259,0.452,0.318,0.617c0.056,0.147,0.079,0.269,0.079,0.401
					c0,0.105-0.012,0.176-0.044,0.27c-0.083,0.25-0.25,0.473-0.436,0.585c-0.117,0.071-0.308,0.128-0.519,0.159
					c-0.081,0.012-0.399,0.012-9.349,0.012c-8.947,0-9.268,0-9.348-0.012c-0.211-0.031-0.4-0.088-0.518-0.159
					c-0.188-0.112-0.353-0.335-0.437-0.585c-0.031-0.094-0.044-0.164-0.044-0.27c0-0.133,0.024-0.254,0.078-0.401
					c0.062-0.165,0.139-0.315,0.319-0.617c0.177-0.293,8.667-14.696,8.765-14.864c0.207-0.359,0.324-0.528,0.484-0.68
					c0.152-0.148,0.281-0.222,0.455-0.258C110.102,86.627,110.245,86.62,110.361,86.632"/>
			</g>
			<g clip-path="url(#SVGID_26_)">
				<defs>
					
						<rect id="SVGID_29_" x="108.732" y="93.5" transform="matrix(-0.2452 -0.9695 0.9695 -0.2452 44.9425 228.5657)" width="5.441" height="6.572"/>
				</defs>
				<clipPath id="SVGID_30_">
					<use xlink:href="#SVGID_29_"  overflow="visible"/>
				</clipPath>
				<path clip-path="url(#SVGID_30_)" fill="#333333" d="M114.718,96.261c-0.032-0.124-0.092-0.235-0.171-0.332
					c-0.013-0.027-0.024-0.054-0.039-0.078l-0.9-1.234l-0.008-0.014c-0.34-0.528-0.751-0.99-1.451-0.814l-2.674,0.678
					c-0.716,0.181-0.832,0.792-0.889,1.404l-0.23,1.521c-0.051,0.156-0.059,0.32-0.018,0.484l0.107,0.428
					c0.018,0.066,0.041,0.129,0.07,0.188c-0.004,0.039,0,0.083,0.01,0.126l0.322,1.271c0.045,0.188,0.234,0.3,0.422,0.253
					l0.701-0.179c0.186-0.047,0.298-0.234,0.252-0.422l-0.161-0.635l3.669-0.928l0.159,0.636c0.049,0.187,0.239,0.299,0.423,0.251
					l0.662-0.166c0.186-0.047,0.299-0.236,0.251-0.424l-0.322-1.27c-0.011-0.043-0.028-0.082-0.052-0.115
					c-0.002-0.066-0.011-0.133-0.026-0.2L114.718,96.261z M109.033,95.902c0.064-0.679,0.192-0.913,0.552-1.003l2.674-0.678
					c0.356-0.09,0.607,0.072,0.961,0.619l0.612,0.717c-0.144-0.016-0.298-0.006-0.449,0.033l-4.188,1.059
					c-0.139,0.036-0.265,0.092-0.375,0.162L109.033,95.902z M109.956,98.093l-0.738,0.188c-0.133,0.035-0.268-0.047-0.301-0.18
					c-0.034-0.133,0.047-0.268,0.18-0.303l0.739-0.186c0.132-0.033,0.267,0.047,0.302,0.18
					C110.17,97.926,110.09,98.06,109.956,98.093 M112.555,97.385l-1.719,0.437c-0.084,0.02-0.17-0.029-0.191-0.114
					s0.03-0.171,0.113-0.191l1.719-0.437c0.086-0.021,0.169,0.031,0.191,0.115S112.638,97.364,112.555,97.385 M114.117,97.042
					l-0.738,0.188c-0.132,0.033-0.269-0.047-0.302-0.182c-0.032-0.132,0.047-0.268,0.18-0.301l0.738-0.188
					c0.135-0.033,0.268,0.047,0.303,0.182C114.331,96.872,114.25,97.009,114.117,97.042"/>
			</g>
			<g clip-path="url(#SVGID_26_)">
				<defs>
					<rect id="SVGID_31_" x="93.758" y="79.714" width="32.947" height="28.158"/>
				</defs>
				<clipPath id="SVGID_32_">
					<use xlink:href="#SVGID_31_"  overflow="visible"/>
				</clipPath>
				<path clip-path="url(#SVGID_32_)" fill="#333333" d="M115.305,99.706h-2.863c0,0-0.76-0.023-1.417,0.633l-0.019,0.018
					c-0.41,0.334-0.933,0.531-1.5,0.531c-0.572,0-1.098-0.201-1.51-0.537l-0.023-0.018c-0.617-0.629-1.409-0.627-1.409-0.627h-2.856
					v3.295h11.598h1.217v-3.295H115.305z"/>
			</g>
		</g>
	</g>
	<g>
		<g>
			<defs>
				<rect id="SVGID_33_" x="93.758" y="79.714" width="32.947" height="28.158"/>
			</defs>
			<clipPath id="SVGID_34_">
				<use xlink:href="#SVGID_33_"  overflow="visible"/>
			</clipPath>
			<g clip-path="url(#SVGID_34_)">
				<defs>
					<rect id="SVGID_35_" x="93.758" y="79.714" width="32.947" height="28.158"/>
				</defs>
				<clipPath id="SVGID_36_">
					<use xlink:href="#SVGID_35_"  overflow="visible"/>
				</clipPath>
			</g>
			<g clip-path="url(#SVGID_34_)">
				<defs>
					
						<rect id="SVGID_37_" x="108.732" y="93.5" transform="matrix(-0.2452 -0.9695 0.9695 -0.2452 44.9425 228.5657)" width="5.441" height="6.572"/>
				</defs>
				<clipPath id="SVGID_38_">
					<use xlink:href="#SVGID_37_"  overflow="visible"/>
				</clipPath>
			</g>
			<g clip-path="url(#SVGID_34_)">
				<defs>
					<rect id="SVGID_39_" x="93.758" y="79.714" width="32.947" height="28.158"/>
				</defs>
				<clipPath id="SVGID_40_">
					<use xlink:href="#SVGID_39_"  overflow="visible"/>
				</clipPath>
			</g>
		</g>
	</g>
</g>
<rect x="141" y="89.335" fill="none" width="27.001" height="14.915"/>
<text transform="matrix(1 0 0 1 140.9995 98.6821)" font-family="'Helvetica'" font-size="13">15</text>
<rect x="221.85" y="128.002" fill="none" width="27" height="14.915"/>
<text transform="matrix(1 0 0 1 221.8491 137.3486)" font-family="'Helvetica'" font-size="13">7</text>
<rect x="260.182" y="168.757" fill="none" width="27" height="14.915"/>
<text transform="matrix(1 0 0 1 260.1821 178.1035)" font-family="'Helvetica'" font-size="13">4</text>
<g>
	<g>
		<defs>
			<rect id="SVGID_41_" x="129.598" y="349.343" width="35" height="35"/>
		</defs>
		<clipPath id="SVGID_42_">
			<use xlink:href="#SVGID_41_"  overflow="visible"/>
		</clipPath>
		<g clip-path="url(#SVGID_42_)">
			<defs>
				<rect id="SVGID_43_" x="129.598" y="349.343" width="35" height="35"/>
			</defs>
			<clipPath id="SVGID_44_">
				<use xlink:href="#SVGID_43_"  overflow="visible"/>
			</clipPath>
			<path clip-path="url(#SVGID_44_)" fill="none" stroke="#333333" stroke-width="0.75" stroke-miterlimit="10" d="M135.175,374.212
				c1.93,5.411,11.923,4.741,11.923,4.741s9.994,0.67,11.924-4.741c-2.744-1.478-7.112-2.447-11.924-2.447
				S137.92,372.735,135.175,374.212"/>
			<path clip-path="url(#SVGID_44_)" fill="none" stroke="#333333" stroke-width="0.5" stroke-miterlimit="10" d="M159.012,360.646
				c-2.178-0.222-5.717-0.37-8.522-2.842c-2.805-2.474-3.392-2.03-3.392-2.03s-0.593-0.443-3.397,2.03
				c-2.806,2.472-6.352,2.62-8.529,2.842s-2.029,1.107-2.578,3.579c-0.548,2.474-2.402,3.139-1.809,3.729
				c0.411,0.409,2.311,1.973,3.438,2.892c2.891-1.747,7.539-2.909,12.876-2.909c5.337,0,9.986,1.162,12.877,2.908
				c1.123-0.92,3.018-2.481,3.43-2.891c0.594-0.591-1.264-1.256-1.812-3.729C161.043,361.753,161.19,360.868,159.012,360.646"/>
			<path clip-path="url(#SVGID_44_)" fill="none" stroke="#333333" stroke-width="0.75" stroke-miterlimit="10" d="M159.131,371.541
				c-2.738-1.514-7.157-2.511-12.033-2.511s-9.294,0.997-12.032,2.511v1.573c2.91-1.484,7.186-2.442,12.032-2.442
				s9.123,0.958,12.033,2.442V371.541z"/>
			<polygon clip-path="url(#SVGID_44_)" fill="none" stroke="#333333" stroke-width="0.5" stroke-miterlimit="10" points="
				149.804,366.459 147.093,364.501 144.384,366.474 145.421,363.252 142.709,361.248 146.059,361.248 147.093,358.063 
				148.128,361.248 151.479,361.248 148.769,363.255 			"/>
		</g>
	</g>
</g>
<g>
	<g>
		<g>
			<defs>
				<rect id="SVGID_45_" x="70.384" y="270.148" width="35.046" height="35.046"/>
			</defs>
			<clipPath id="SVGID_46_">
				<use xlink:href="#SVGID_45_"  overflow="visible"/>
			</clipPath>
			<g clip-path="url(#SVGID_46_)">
				<defs>
					<rect id="SVGID_47_" x="70.384" y="270.148" width="35.046" height="35.046"/>
				</defs>
				<clipPath id="SVGID_48_">
					<use xlink:href="#SVGID_47_"  overflow="visible"/>
				</clipPath>
			</g>
		</g>
	</g>
	<g>
		<g>
			<defs>
				<rect id="SVGID_49_" x="70.384" y="270.148" width="35.046" height="35.046"/>
			</defs>
			<clipPath id="SVGID_50_">
				<use xlink:href="#SVGID_49_"  overflow="visible"/>
			</clipPath>
			<g clip-path="url(#SVGID_50_)">
				<defs>
					<rect id="SVGID_51_" x="70.384" y="270.148" width="35.046" height="35.046"/>
				</defs>
				<clipPath id="SVGID_52_">
					<use xlink:href="#SVGID_51_"  overflow="visible"/>
				</clipPath>
				<path clip-path="url(#SVGID_52_)" fill="none" stroke="#333333" stroke-width="0.75" stroke-miterlimit="10" d="M88.056,270.61
					c-6.292,0-11.392,5.104-11.392,11.394c0,4.769,6.545,16.537,9.713,21.956c0.35,0.596,0.986,0.965,1.678,0.965
					s1.33-0.365,1.68-0.964c3.168-5.417,9.715-17.188,9.715-21.957C99.45,275.713,94.346,270.61,88.056,270.61"/>
				<path clip-path="url(#SVGID_52_)" fill="none" stroke="#333333" stroke-width="0.75" stroke-miterlimit="10" d="M90.506,292.561
					h-4.947c-0.232,0-0.422,0.19-0.422,0.423c0,0.234,0.189,0.422,0.422,0.422h4.947c0.232,0,0.422-0.188,0.422-0.422
					C90.928,292.751,90.739,292.561,90.506,292.561"/>
				<path clip-path="url(#SVGID_52_)" fill="none" stroke="#333333" stroke-width="0.75" stroke-miterlimit="10" d="M90.506,294.049
					h-4.947c-0.232,0-0.422,0.189-0.422,0.424c0,0.232,0.189,0.422,0.422,0.422h1.023c0.042,0.289,0.286,0.512,0.586,0.512h1.773
					c0.302,0,0.547-0.223,0.587-0.512h0.978c0.232,0,0.422-0.189,0.422-0.422C90.928,294.239,90.739,294.049,90.506,294.049"/>
				<path clip-path="url(#SVGID_52_)" fill="none" stroke="#333333" stroke-width="0.75" stroke-miterlimit="10" d="M88.056,276.59
					c-0.07,0-0.138,0.009-0.206,0.011l0.182,2.48h-2.835l-0.435,3.503l-2.961-0.825c-0.074,0.39-0.117,0.792-0.117,1.204
					c0,1.599,0.997,3.268,1.303,3.743c-0.008-0.011,0.451,0.718,0.451,0.718c0.803,1.256,1.56,2.445,1.738,3.896
					c0.037,0.31,0.3,0.542,0.611,0.542h4.635c0.311,0,0.573-0.232,0.611-0.541c0.193-1.564,0.982-2.831,1.816-4.171l0.283-0.455
					c0.301-0.463,1.296-2.133,1.296-3.732C94.429,279.451,91.569,276.59,88.056,276.59"/>
			</g>
		</g>
	</g>
	<g>
		<g>
			<defs>
				<rect id="SVGID_53_" x="70.384" y="270.148" width="35.046" height="35.046"/>
			</defs>
			<clipPath id="SVGID_54_">
				<use xlink:href="#SVGID_53_"  overflow="visible"/>
			</clipPath>
			<g clip-path="url(#SVGID_54_)">
				<defs>
					<rect id="SVGID_55_" x="70.384" y="270.148" width="35.046" height="35.046"/>
				</defs>
				<clipPath id="SVGID_56_">
					<use xlink:href="#SVGID_55_"  overflow="visible"/>
				</clipPath>
			</g>
		</g>
	</g>
</g>
<g>
	<g id="Layer_3_3_">
	</g>
	<g id="Layer_1_3_">
		<path fill="#010101" d="M199.784,399.602"/>
		<polyline fill="none" stroke="#333333" stroke-width="0.5" stroke-miterlimit="10" points="178.118,402.998 179.559,401.492 
			181.672,401.829 183.305,400.483 184.555,400.868 184.907,400.275 		"/>
		<g>
			<path fill="none" d="M184.563,400.361c-0.426-0.38-1.07-0.653-1.67-0.653c0,0-2.301,0-4.578,0v5.311c4.797,0,10,0,10,0
				c0.617,0,1.004-0.169,0.166-0.975C187.545,403.142,185.159,400.892,184.563,400.361z"/>
			<path fill="none" d="M172.452,400.513c-0.336,0.466-1.758,2.307-2.361,3.143c-0.689,0.956-0.355,1.362,0.355,1.362
				c0.404,0,3.613,0,7.201,0v-5.311c-1.773,0-3.393,0-3.713,0C173.167,399.708,172.885,399.909,172.452,400.513z"/>
			<path fill="none" d="M170.194,410.469c-1.287,0-2.336,1.048-2.336,2.334c0,1.289,1.049,2.336,2.336,2.336
				c1.289,0,2.336-1.048,2.336-2.336C172.53,411.517,171.483,410.469,170.194,410.469z"/>
			<path fill="none" d="M193.555,410.469c-1.289,0-2.336,1.048-2.336,2.334c0,1.289,1.047,2.336,2.336,2.336
				c1.287,0,2.334-1.048,2.334-2.336C195.889,411.517,194.842,410.469,193.555,410.469z"/>
			<path fill="none" stroke="#333333" stroke-width="0.75" stroke-miterlimit="10" d="M198.215,406.132l-1.842,0.74l-1.102-1.584
				c-0.02-0.004-0.041-0.009-0.061-0.013l0.059,0.013l-1.6-2.227l-1.6,1.554c-3.02-2.856-5.254-4.998-6.715-6.338
				c-1.037-0.948-1.723-1.046-2.078-1.046c-0.338,0-9,0-10.01,0c-1.008,0-1.562,0.188-2.078,1.046
				c-0.514,0.857-3.34,4.22-3.973,5.347c-4.195,0.873-4.809,1.672-4.809,2.919c0,0.707,0,5.373,0,5.373
				c0,0.675,1.689,2.445,2.336,2.445h1.051c0.641,1.814,2.365,3.115,4.4,3.115c2.033,0,3.758-1.301,4.4-3.115h14.559
				c0.641,1.814,2.367,3.115,4.4,3.115c2.129,0,3.92-1.426,4.484-3.371c0.754-0.517,1.744-1.674,1.744-2.188
				c0,0-0.863-3.474-0.863-4.18C198.92,407.193,198.678,407.355,198.215,406.132z M177.647,405.018c-3.588,0-6.797,0-7.201,0
				c-0.711,0-1.045-0.406-0.355-1.362c0.604-0.836,2.025-2.677,2.361-3.143c0.434-0.604,0.715-0.806,1.482-0.806
				c0.32,0,1.939,0,3.713,0V405.018L177.647,405.018z M188.315,405.018c0,0-5.203,0-10,0v-5.311c2.277,0,4.578,0,4.578,0
				c0.6,0,1.242,0.272,1.67,0.653c0.596,0.531,2.984,2.781,3.918,3.683C189.319,404.85,188.934,405.018,188.315,405.018z"/>
		</g>
		<g>
			<path fill="none" stroke="#333333" stroke-miterlimit="10" d="M193.555,415.556c-1.289,0-2.336-1.05-2.336-2.337
				c0-1.288,1.047-2.336,2.336-2.336c1.287,0,2.336,1.049,2.336,2.336S194.842,415.556,193.555,415.556z"/>
			<path fill="none" stroke="#333333" stroke-miterlimit="10" d="M170.194,415.556c-1.287,0-2.336-1.05-2.336-2.337
				c0-1.288,1.049-2.336,2.336-2.336c1.289,0,2.336,1.049,2.336,2.336S171.483,415.556,170.194,415.556z"/>
		</g>
	</g>
</g>
<g>
	<g>
		<g>
			<defs>
				<rect id="SVGID_57_" x="138.026" y="312.903" width="32.947" height="28.158"/>
			</defs>
			<clipPath id="SVGID_58_">
				<use xlink:href="#SVGID_57_"  overflow="visible"/>
			</clipPath>
			<g clip-path="url(#SVGID_58_)">
				<defs>
					<rect id="SVGID_59_" x="138.026" y="312.903" width="32.947" height="28.158"/>
				</defs>
				<clipPath id="SVGID_60_">
					<use xlink:href="#SVGID_59_"  overflow="visible"/>
				</clipPath>
			</g>
			<g clip-path="url(#SVGID_58_)">
				<defs>
					
						<rect id="SVGID_61_" x="152.999" y="326.69" transform="matrix(-0.2452 -0.9695 0.9695 -0.2452 -126.0112 561.839)" width="5.441" height="6.572"/>
				</defs>
				<clipPath id="SVGID_62_">
					<use xlink:href="#SVGID_61_"  overflow="visible"/>
				</clipPath>
			</g>
			<g clip-path="url(#SVGID_58_)">
				<defs>
					<rect id="SVGID_63_" x="138.026" y="312.903" width="32.947" height="28.158"/>
				</defs>
				<clipPath id="SVGID_64_">
					<use xlink:href="#SVGID_63_"  overflow="visible"/>
				</clipPath>
			</g>
		</g>
	</g>
	<g>
		<g>
			<defs>
				<rect id="SVGID_65_" x="138.026" y="312.903" width="32.947" height="28.158"/>
			</defs>
			<clipPath id="SVGID_66_">
				<use xlink:href="#SVGID_65_"  overflow="visible"/>
			</clipPath>
			<g clip-path="url(#SVGID_66_)">
				<defs>
					<rect id="SVGID_67_" x="138.026" y="312.903" width="32.947" height="28.158"/>
				</defs>
				<clipPath id="SVGID_68_">
					<use xlink:href="#SVGID_67_"  overflow="visible"/>
				</clipPath>
				<path clip-path="url(#SVGID_68_)" fill="none" stroke="#333333" stroke-width="0.5" stroke-miterlimit="10" d="M154.637,313.54
					c0.357,0.037,0.709,0.223,0.91,0.486c0.027,0.035,2.297,3.828,6.369,10.654c3.48,5.826,6.758,11.314,7.283,12.195
					c0.523,0.879,0.973,1.635,0.994,1.678c0.074,0.143,0.117,0.277,0.139,0.412c0.012,0.076,0.014,0.248,0.004,0.324
					c-0.057,0.441-0.338,0.834-0.738,1.021c-0.113,0.051-0.236,0.086-0.398,0.107c-0.08,0.01-0.633,0.01-14.699,0.01
					c-14.068,0-14.619,0-14.699-0.01c-0.162-0.021-0.285-0.057-0.399-0.107c-0.399-0.188-0.683-0.58-0.737-1.021
					c-0.01-0.076-0.008-0.248,0.003-0.324c0.021-0.135,0.065-0.27,0.138-0.412c0.021-0.043,0.471-0.799,0.996-1.678
					c0.523-0.881,3.801-6.369,7.282-12.195c4.073-6.826,6.341-10.619,6.37-10.654C153.711,313.69,154.184,313.497,154.637,313.54
					L154.637,313.54z"/>
				<path clip-path="url(#SVGID_68_)" fill="none" stroke="#333333" stroke-width="0.5" stroke-miterlimit="10" d="M154.629,319.821
					c0.119,0.012,0.25,0.053,0.338,0.1c0.068,0.035,0.152,0.1,0.232,0.178c0.158,0.152,0.277,0.32,0.484,0.68
					c0.096,0.168,8.588,14.572,8.764,14.865c0.18,0.301,0.26,0.451,0.318,0.617c0.057,0.146,0.08,0.268,0.08,0.4
					c0,0.105-0.012,0.176-0.045,0.27c-0.082,0.25-0.25,0.473-0.436,0.586c-0.117,0.07-0.307,0.127-0.518,0.158
					c-0.082,0.012-0.4,0.012-9.35,0.012c-8.947,0-9.268,0-9.348-0.012c-0.211-0.031-0.4-0.088-0.518-0.158
					c-0.188-0.113-0.353-0.336-0.437-0.586c-0.031-0.094-0.044-0.164-0.044-0.27c0-0.133,0.024-0.254,0.078-0.4
					c0.062-0.166,0.139-0.316,0.319-0.617c0.177-0.293,8.667-14.697,8.765-14.865c0.207-0.359,0.324-0.527,0.484-0.68
					c0.152-0.148,0.281-0.221,0.455-0.258C154.37,319.817,154.512,319.809,154.629,319.821"/>
			</g>
			<g clip-path="url(#SVGID_66_)">
				<defs>
					
						<rect id="SVGID_69_" x="152.999" y="326.69" transform="matrix(-0.2452 -0.9695 0.9695 -0.2452 -126.0112 561.839)" width="5.441" height="6.572"/>
				</defs>
				<clipPath id="SVGID_70_">
					<use xlink:href="#SVGID_69_"  overflow="visible"/>
				</clipPath>
				<path clip-path="url(#SVGID_70_)" fill="#333333" d="M158.987,329.45c-0.033-0.123-0.092-0.234-0.172-0.332
					c-0.012-0.027-0.023-0.053-0.039-0.078l-0.9-1.234l-0.008-0.014c-0.34-0.527-0.75-0.99-1.451-0.814l-2.674,0.678
					c-0.715,0.182-0.832,0.793-0.889,1.404l-0.231,1.521c-0.051,0.156-0.059,0.32-0.018,0.484l0.108,0.428
					c0.018,0.066,0.041,0.129,0.07,0.188c-0.004,0.039,0,0.084,0.01,0.127l0.322,1.27c0.045,0.188,0.234,0.301,0.422,0.254
					l0.701-0.18c0.186-0.047,0.299-0.234,0.252-0.422l-0.16-0.635l3.668-0.928l0.16,0.637c0.049,0.186,0.238,0.299,0.422,0.25
					l0.663-0.166c0.186-0.047,0.299-0.236,0.252-0.424l-0.322-1.27c-0.012-0.043-0.029-0.082-0.053-0.115
					c-0.002-0.066-0.01-0.133-0.025-0.199L158.987,329.45z M153.301,329.092c0.064-0.68,0.191-0.914,0.551-1.004l2.674-0.678
					c0.357-0.09,0.607,0.072,0.961,0.619l0.613,0.717c-0.144-0.016-0.298-0.006-0.449,0.033l-4.189,1.059
					c-0.139,0.037-0.264,0.092-0.375,0.162L153.301,329.092z M154.223,331.282l-0.738,0.188c-0.133,0.035-0.268-0.047-0.301-0.18
					s0.047-0.268,0.18-0.303l0.74-0.186c0.131-0.033,0.266,0.047,0.301,0.18C154.438,331.116,154.358,331.249,154.223,331.282
					 M156.823,330.575l-1.719,0.436c-0.084,0.02-0.17-0.029-0.191-0.113c-0.021-0.086,0.031-0.172,0.113-0.191l1.719-0.438
					c0.086-0.021,0.17,0.031,0.191,0.115C156.959,330.467,156.907,330.553,156.823,330.575 M158.385,330.231l-0.738,0.188
					c-0.133,0.033-0.27-0.047-0.303-0.182c-0.031-0.131,0.047-0.268,0.18-0.301l0.738-0.188c0.135-0.033,0.268,0.047,0.303,0.182
					C158.598,330.061,158.518,330.198,158.385,330.231"/>
			</g>
			<g clip-path="url(#SVGID_66_)">
				<defs>
					<rect id="SVGID_71_" x="138.026" y="312.903" width="32.947" height="28.158"/>
				</defs>
				<clipPath id="SVGID_72_">
					<use xlink:href="#SVGID_71_"  overflow="visible"/>
				</clipPath>
				<path clip-path="url(#SVGID_72_)" fill="#333333" d="M159.573,332.895h-2.863c0,0-0.76-0.023-1.416,0.633l-0.02,0.018
					c-0.41,0.334-0.932,0.531-1.5,0.531c-0.572,0-1.098-0.201-1.51-0.537l-0.023-0.018c-0.617-0.629-1.409-0.627-1.409-0.627h-2.856
					v3.295h11.598h1.217v-3.295H159.573z"/>
			</g>
		</g>
	</g>
	<g>
		<g>
			<defs>
				<rect id="SVGID_73_" x="138.026" y="312.903" width="32.947" height="28.158"/>
			</defs>
			<clipPath id="SVGID_74_">
				<use xlink:href="#SVGID_73_"  overflow="visible"/>
			</clipPath>
			<g clip-path="url(#SVGID_74_)">
				<defs>
					<rect id="SVGID_75_" x="138.026" y="312.903" width="32.947" height="28.158"/>
				</defs>
				<clipPath id="SVGID_76_">
					<use xlink:href="#SVGID_75_"  overflow="visible"/>
				</clipPath>
			</g>
			<g clip-path="url(#SVGID_74_)">
				<defs>
					
						<rect id="SVGID_77_" x="152.999" y="326.69" transform="matrix(-0.2452 -0.9695 0.9695 -0.2452 -126.0112 561.839)" width="5.441" height="6.572"/>
				</defs>
				<clipPath id="SVGID_78_">
					<use xlink:href="#SVGID_77_"  overflow="visible"/>
				</clipPath>
			</g>
			<g clip-path="url(#SVGID_74_)">
				<defs>
					<rect id="SVGID_79_" x="138.026" y="312.903" width="32.947" height="28.158"/>
				</defs>
				<clipPath id="SVGID_80_">
					<use xlink:href="#SVGID_79_"  overflow="visible"/>
				</clipPath>
			</g>
		</g>
	</g>
</g>
<g>
	<g>
		<defs>
			<rect id="SVGID_81_" x="18.586" y="223.417" width="48.798" height="27.148"/>
		</defs>
		<clipPath id="SVGID_82_">
			<use xlink:href="#SVGID_81_"  overflow="visible"/>
		</clipPath>
		<rect x="18.586" y="223.416" clip-path="url(#SVGID_82_)" fill="#B6DCF4" width="48.798" height="6.828"/>
		<rect x="18.586" y="230.244" clip-path="url(#SVGID_82_)" fill="#F7F7F7" width="48.798" height="13.81"/>
		<rect x="18.586" y="244.053" clip-path="url(#SVGID_82_)" fill="#B6DCF4" width="48.798" height="6.512"/>
		<polygon clip-path="url(#SVGID_82_)" fill="#EE2424" points="24.752,235.203 25.647,231.809 26.641,235.301 30.111,234.37 
			27.571,236.875 30.111,239.43 26.618,238.495 25.649,241.893 24.735,238.516 21.303,239.389 23.762,236.875 21.303,234.329 		"/>
		<polygon clip-path="url(#SVGID_82_)" fill="#EE2424" points="36.274,235.203 37.167,231.809 38.163,235.301 41.631,234.37 
			39.091,236.875 41.631,239.43 38.137,238.495 37.169,241.893 36.255,238.516 32.824,239.389 35.284,236.875 32.824,234.329 		"/>
		<polygon clip-path="url(#SVGID_82_)" fill="#EE2424" points="48.066,235.5 48.959,232.106 49.954,235.597 53.424,234.667 
			50.883,237.171 53.424,239.727 49.93,238.793 48.96,242.191 48.047,238.813 44.616,239.686 47.076,237.171 44.616,234.625 		"/>
		<polygon clip-path="url(#SVGID_82_)" fill="#EE2424" points="59.251,235.5 60.145,232.106 61.139,235.597 64.61,234.667 
			62.07,237.171 64.61,239.727 61.116,238.793 60.147,242.191 59.234,238.813 55.802,239.686 58.262,237.171 55.802,234.625 		"/>
	</g>
</g>
<rect x="82.061" y="231.065" fill="none" width="200.273" height="19.5"/>
<text transform="matrix(1 0 0 1 82.061 242.5688)" font-family="'Helvetica'" font-size="16">CITY OF CHICAGO</text>
<rect x="7.095" y="7.417" fill="none" width="200.272" height="19.5"/>
<text transform="matrix(1 0 0 1 7.0952 18.9204)" font-family="'Helvetica'" font-size="16">ALONG ROUTE</text>
<rect x="113.206" y="281.096" fill="none" width="27" height="14.914"/>
<text transform="matrix(1 0 0 1 113.2056 290.4429)" font-family="'Helvetica'" font-size="13">54</text>
<rect x="186.284" y="320.137" fill="none" width="27" height="14.914"/>
<text transform="matrix(1 0 0 1 186.2827 329.4839)" font-family="'Helvetica'" font-size="13">42</text>
<rect x="177.719" y="359.565" fill="none" width="27" height="14.914"/>
<text transform="matrix(1 0 0 1 177.7183 368.9116)" font-family="'Helvetica'" font-size="13">46</text>
<rect x="214.27" y="399.897" fill="none" width="27" height="14.914"/>
<text transform="matrix(1 0 0 1 214.269 409.2437)" font-family="'Helvetica'" font-size="13">35</text>
</svg>
