<?xml version="1.0" encoding="utf-8"?>
<!-- Generator: Adobe Illustrator 16.0.0, SVG Export Plug-In . SVG Version: 6.00 Build 0)  -->
<!DOCTYPE svg PUBLIC "-//W3C//DTD SVG 1.1//EN" "http://www.w3.org/Graphics/SVG/1.1/DTD/svg11.dtd" [
	<!ENTITY ns_flows "http://ns.adobe.com/Flows/1.0/">
	<!ENTITY ns_extend "http://ns.adobe.com/Extensibility/1.0/">
	<!ENTITY ns_ai "http://ns.adobe.com/AdobeIllustrator/10.0/">
	<!ENTITY ns_graphs "http://ns.adobe.com/Graphs/1.0/">
]>
<svg version="1.1" id="Circle" xmlns:x="&ns_extend;" xmlns:i="&ns_ai;" xmlns:graph="&ns_graphs;"
	 xmlns="http://www.w3.org/2000/svg" xmlns:xlink="http://www.w3.org/1999/xlink" xmlns:a="http://ns.adobe.com/AdobeSVGViewerExtensions/3.0/"
	 x="0px" y="0px" width="250px" height="250px" viewBox="0 0 250 250" enable-background="new 0 0 250 250" xml:space="preserve">
<path id="Circle_1_" fill="#B03C26" d="M125.521,4.021C57.945,3.774,1.958,61.144,3.922,128.629
	c1.897,65.584,57.56,118.508,123.364,117.332c66.018-1.185,119.374-55.841,118.838-121.714
	C245.588,58.458,191.222,4.265,125.521,4.021z"/>
<path id="X" fill="#FFFFFF" d="M63.409,166.955l39.808-44.859L69.719,82.204c-3.154-3.871-5.521-7.195-7.099-9.973
	c-1.58-2.777-2.367-5.446-2.367-8.007c0-2.622,1.518-4.978,4.55-7.07c3.035-2.092,6.736-3.138,11.105-3.138
	c5.018,0,8.921,1.14,11.713,3.418c2.791,2.28,6.654,6.508,11.589,12.689l26.7,33.338l28.52-33.338
	c2.35-2.809,4.351-5.212,6.007-7.211c1.659-1.998,3.259-3.651,4.797-4.963c1.534-1.311,3.255-2.294,5.156-2.949
	c1.899-0.656,4.108-0.984,6.615-0.984c4.53,0,8.232,1.045,11.105,3.138c2.869,2.092,4.308,4.574,4.308,7.444
	c0,4.183-3.113,9.866-9.345,17.044L148,122.096l37.744,44.859c3.396,3.934,5.866,7.197,7.403,9.785
	c1.536,2.592,2.304,5.043,2.304,7.352c0,2.186-0.686,4.182-2.063,5.994c-1.376,1.811-3.317,3.246-5.823,4.307
	c-2.509,1.063-5.342,1.592-8.498,1.592c-3.395,0-6.27-0.547-8.616-1.639c-2.35-1.09-4.245-2.449-5.704-4.074
	c-1.456-1.621-4.17-4.775-8.129-9.459l-31.313-38.02l-33.253,39.145c-2.591,3.123-4.43,5.307-5.522,6.557
	c-1.093,1.248-2.409,2.467-3.945,3.65c-1.537,1.188-3.357,2.121-5.462,2.811c-2.104,0.688-4.569,1.029-7.402,1.029
	c-4.367,0-7.992-1.029-10.861-3.092c-2.873-2.059-4.309-5.055-4.309-8.988C54.549,179.285,57.501,173.637,63.409,166.955z"/>
</svg>
