<?xml version="1.0" encoding="utf-8"?>
<!-- Generator: Adobe Illustrator 15.0.0, SVG Export Plug-In . SVG Version: 6.00 Build 0)  -->
<!DOCTYPE svg PUBLIC "-//W3C//DTD SVG 1.1//EN" "http://www.w3.org/Graphics/SVG/1.1/DTD/svg11.dtd">
<svg version="1.1" id="Layer_1" xmlns="http://www.w3.org/2000/svg" xmlns:xlink="http://www.w3.org/1999/xlink" x="0px" y="0px"
	 width="112px" height="112px" viewBox="0 0 112 112" enable-background="new 0 0 112 112" xml:space="preserve">
<g id="Layer_3">
</g>
<g id="Layer_1_1_">
	<path d="M105.623,34.833"/>
	<polyline fill="none" stroke="#B26E25" stroke-width="0.5" stroke-miterlimit="10" points="49.25,43.667 53,39.75 58.5,40.625 
		62.75,37.125 66,38.125 66.917,36.583 	"/>
	<polygon fill="#FFFFFF" points="22.558,48.925 34.714,32.5 49.25,31.5 49.25,43.667 53,39.75 58.5,40.625 62.75,37.125 66,38.125 
		68,35.108 83.338,51.75 46,58.25 	"/>
	<g>
		<path fill="none" d="M66.02,36.806c-1.108-0.989-2.785-1.698-4.345-1.698c0,0-5.985,0-11.911,0v13.817
			c12.482,0,26.02,0,26.02-0.001c1.606,0,2.612-0.438,0.429-2.535C73.781,44.042,67.57,38.188,66.02,36.806z"/>
		<path fill="none" d="M34.507,37.203c-0.872,1.213-4.574,6.001-6.142,8.177c-1.795,2.489-0.924,3.545,0.923,3.544
			c1.053,0,9.401,0,18.739,0V35.108c-4.616,0-8.827,0-9.662,0C36.368,35.108,35.639,35.63,34.507,37.203z"/>
		<path fill="none" d="M28.636,63.107c-3.35,0-6.078,2.728-6.078,6.076c0,3.352,2.728,6.077,6.078,6.077
			c3.35,0,6.078-2.728,6.078-6.077C34.714,65.835,31.986,63.107,28.636,63.107z"/>
		<path fill="none" d="M89.415,63.107c-3.351,0-6.078,2.728-6.078,6.076c0,3.352,2.728,6.077,6.078,6.077s6.078-2.728,6.078-6.077
			C95.493,65.835,92.766,63.107,89.415,63.107z"/>
		<path fill="#DF9F25" d="M101.545,51.825L96.75,53.75l-2.868-4.12c-0.049-0.011-0.104-0.023-0.153-0.034l0.152,0.032l-4.162-5.794
			l-4.162,4.046c-7.857-7.434-13.67-13.005-17.475-16.492c-2.695-2.467-4.479-2.722-5.406-2.722c-0.879,0-23.417,0-26.043,0
			c-2.622,0-4.065,0.489-5.407,2.722c-1.336,2.23-8.691,10.978-10.339,13.911c-10.912,2.271-12.51,4.349-12.51,7.594
			c0,1.839,0,13.981,0,13.981c0,1.755,4.399,6.364,6.078,6.364h2.732c1.67,4.72,6.157,8.104,11.45,8.104
			c5.292,0,9.78-3.385,11.451-8.104h37.879c1.668,4.72,6.158,8.104,11.449,8.104c5.54,0,10.203-3.709,11.67-8.773
			c1.961-1.342,4.537-4.353,4.537-5.693c0,0-2.248-9.035-2.248-10.873C103.375,54.585,102.75,55.004,101.545,51.825z M48.027,48.924
			c-9.337,0-17.686,0-18.739,0c-1.847,0.001-2.718-1.056-0.923-3.544c1.568-2.176,5.27-6.964,6.142-8.177
			c1.131-1.572,1.86-2.094,3.857-2.094c0.835,0,5.046,0,9.662,0L48.027,48.924L48.027,48.924z M75.784,48.924
			c0,0.001-13.538,0.001-26.02,0.001V35.108c5.925,0,11.911,0,11.911,0c1.56,0,3.234,0.708,4.345,1.698
			c1.554,1.382,7.764,7.236,10.193,9.583C78.396,48.487,77.393,48.924,75.784,48.924z"/>
	</g>
	<g>
		<path fill="#FFFFFF" d="M89.416,76.342c-3.352,0-6.078-2.729-6.078-6.078c0-3.351,2.727-6.078,6.078-6.078
			c3.35,0,6.078,2.729,6.078,6.078C95.494,73.613,92.766,76.342,89.416,76.342z"/>
		<path fill="#FFFFFF" d="M28.636,76.342c-3.351,0-6.078-2.729-6.078-6.078c0-3.351,2.728-6.078,6.078-6.078
			c3.35,0,6.078,2.729,6.078,6.078C34.714,73.613,31.987,76.342,28.636,76.342z"/>
	</g>
</g>
</svg>
