<?xml version="1.0" encoding="utf-8"?>
<!-- Generator: Adobe Illustrator 18.1.0, SVG Export Plug-In . SVG Version: 6.00 Build 0)  -->
<svg version="1.1" id="Layer_1" xmlns="http://www.w3.org/2000/svg" xmlns:xlink="http://www.w3.org/1999/xlink" x="0px" y="0px"
	 viewBox="0 0 220 263" enable-background="new 0 0 220 263" xml:space="preserve">
<g>
	<g>
		<path fill="#F94877" d="M201.2,92c0,0-77.6,0-90.1,0C98.7,92,95,101.3,95,107.2c0,5.9,0,143.1,0,143.1c0,6.6,3.6,9.1,5.6,9.9
			c2,0.8,7.5,1.5,10.8-2.3c0,0,42.5-49.3,43.3-50.1c1.1-1.1,1.1-1.1,2.2-1.1c2.2,0,18.6,0,27.5,0c11.6,0,13.4-8.2,14.6-13.1
			c1-4.1,12.3-61.8,16.1-80.1C217.9,99.5,214.4,92,201.2,92z M199,193.7c1-4.1,12.3-61.8,16.1-80.1 M195.8,116.4l-3.8,19.7
			c-0.5,2.1-3.1,4.4-5.6,4.4c-2.5,0-35.1,0-35.1,0c-3.9,0-6.8,2.7-6.8,6.6v4.3c0,3.9,2.8,6.7,6.8,6.7c0,0,27,0,29.8,0
			c2.8,0,5.5,3.1,4.9,6c-0.6,3-3.4,17.7-3.8,19.4c-0.3,1.6-2.2,4.4-5.5,4.4c-2.8,0-24.3,0-24.3,0c-4.4,0-5.8,0.6-8.7,4.3
			c-3,3.7-29.6,35.7-29.6,35.7c-0.3,0.3-0.5,0.2-0.5-0.1V116.1c0-2.5,2.2-5.5,5.5-5.5c0,0,69.5,0,72.3,0
			C194,110.6,196.5,113.1,195.8,116.4z"/>
	</g>
</g>
</svg>
