<?xml version="1.0" encoding="utf-8"?>
<!-- Generator: Adobe Illustrator 15.0.0, SVG Export Plug-In . SVG Version: 6.00 Build 0)  -->
<!DOCTYPE svg PUBLIC "-//W3C//DTD SVG 1.1//EN" "http://www.w3.org/Graphics/SVG/1.1/DTD/svg11.dtd">
<svg version="1.1" id="Layer_1" xmlns="http://www.w3.org/2000/svg" xmlns:xlink="http://www.w3.org/1999/xlink" x="0px" y="0px"
	 width="82.684px" height="80.953px" viewBox="0 0 82.684 80.953" enable-background="new 0 0 82.684 80.953" xml:space="preserve">
<path fill="#D45E39" stroke="#817D85" stroke-width="0.5" stroke-miterlimit="10" d="M78.356,72.921c0,2.763-2.237,5-5,5H9.762
	c-2.761,0-5-2.237-5-5V9.329c0-2.761,2.239-5,5-5h63.594c2.763,0,5,2.239,5,5V72.921z"/>
<path d="M64.327,26.979c-0.451-4.42-1.17-7.861-2.312-9.214c-4.699-5.561-37.604-5.968-41.342,0
	c-0.914,1.462-1.555,4.892-1.985,9.222c-1.388,0.163-2.469,1.332-2.469,2.762v5.415c0,1.204,0.763,2.219,1.828,2.616
	c-0.252,8.528-0.048,17.425,0.33,21.849c0,3.416,2.294,2.85,2.294,2.85h2.151v3.688c0,1.461,1.508,2.646,3.364,2.646
	c1.859,0,3.367-1.184,3.367-2.646v-3.688h25.023v3.688c0,1.461,1.506,2.646,3.364,2.646c1.859,0,3.365-1.184,3.365-2.646v-3.688
	h0.707c0,0,2.701,0.37,2.873-1.238c0-4.412,0.277-14.191,0.049-23.424c1.133-0.354,1.959-1.397,1.959-2.652v-5.415
	C66.897,28.285,65.764,27.096,64.327,26.979z M28.711,18.559h25.268v3.822H28.711V18.559z M29.072,58.123
	c-1.982,0-3.591-1.607-3.591-3.593c0-1.981,1.607-3.589,3.591-3.589c1.984,0,3.594,1.607,3.594,3.589
	C32.665,56.515,31.057,58.123,29.072,58.123z M53.844,58.123c-1.982,0-3.594-1.607-3.594-3.593c0-1.981,1.608-3.589,3.594-3.589
	s3.59,1.607,3.59,3.589C57.436,56.515,55.829,58.123,53.844,58.123z M58.411,42.404H24.28V24.502H58.41L58.411,42.404L58.411,42.404
	z"/>
</svg>
