<?xml version="1.0" encoding="utf-8"?>
<!-- Generator: Adobe Illustrator 15.0.0, SVG Export Plug-In . SVG Version: 6.00 Build 0)  -->
<!DOCTYPE svg PUBLIC "-//W3C//DTD SVG 1.1//EN" "http://www.w3.org/Graphics/SVG/1.1/DTD/svg11.dtd">
<svg version="1.1" id="Capa_1" xmlns="http://www.w3.org/2000/svg" xmlns:xlink="http://www.w3.org/1999/xlink" x="0px" y="0px"
	 width="70.04px" height="70.04px" viewBox="0 0 70.04 70.04" enable-background="new 0 0 70.04 70.04" xml:space="preserve">
<g>
	<path fill="#2F343B" d="M35.318,0.924c-12.575,0-22.767,10.197-22.767,22.771c0,9.526,13.078,33.048,19.41,43.876
		c0.698,1.193,1.971,1.93,3.354,1.93c1.381,0,2.659-0.73,3.356-1.926c6.33-10.828,19.412-34.353,19.412-43.88
		C58.084,11.121,47.889,0.924,35.318,0.924z"/>
</g>
<path fill="#FFCC66" d="M40.211,44.792h-9.884c-0.467,0-0.845,0.379-0.845,0.846s0.378,0.844,0.845,0.844h9.884
	c0.467,0,0.844-0.377,0.844-0.844S40.678,44.792,40.211,44.792z"/>
<path fill="#FFCC66" d="M40.211,47.766h-9.884c-0.467,0-0.845,0.381-0.845,0.848s0.378,0.844,0.845,0.844h2.045
	c0.084,0.576,0.571,1.021,1.172,1.021h3.544c0.602,0,1.09-0.445,1.172-1.021h1.951c0.467,0,0.844-0.377,0.844-0.844
	S40.678,47.766,40.211,47.766z"/>
<g>
	<path fill="#FFFFFF" d="M35.317,12.875c-0.14,0-0.274,0.017-0.413,0.021l0.365,4.957h-5.667l-0.869,7l-5.916-1.649
		c-0.15,0.781-0.235,1.584-0.235,2.408c0,3.193,1.992,6.528,2.604,7.479c-0.016-0.021,0.903,1.436,0.903,1.436
		c1.603,2.51,3.113,4.887,3.471,7.786c0.076,0.619,0.602,1.084,1.224,1.084h9.264c0.619,0,1.146-0.465,1.223-1.08
		c0.387-3.127,1.961-5.66,3.629-8.336l0.564-0.909c0.602-0.928,2.592-4.263,2.592-7.458C48.053,18.591,42.338,12.875,35.317,12.875z
		"/>
	<path display="none" fill="#FFFFFF" d="M29.603,17.854h5.667l-0.365-4.957c-6.014,0.193-10.981,4.565-12.086,10.308l5.916,1.649
		L29.603,17.854z"/>
</g>
</svg>
