<?xml version="1.0" encoding="utf-8"?>
<!-- Generator: Adobe Illustrator 15.0.0, SVG Export Plug-In . SVG Version: 6.00 Build 0)  -->
<!DOCTYPE svg PUBLIC "-//W3C//DTD SVG 1.1//EN" "http://www.w3.org/Graphics/SVG/1.1/DTD/svg11.dtd">
<svg version="1.1" id="Capa_1" xmlns="http://www.w3.org/2000/svg" xmlns:xlink="http://www.w3.org/1999/xlink" x="0px" y="0px"
	 width="64px" height="64px" viewBox="0 0 64 64" enable-background="new 0 0 64 64" xml:space="preserve">
<g>
	<path d="M10.199,45.477C13.727,55.369,32,54.143,32,54.143s18.273,1.227,21.801-8.666C48.782,42.773,40.798,41,32,41
		S15.218,42.773,10.199,45.477z"/>
	<path fill="#333399" d="M53.785,20.667c-3.982-0.405-10.454-0.675-15.583-5.197S32,11.758,32,11.758s-1.085-0.81-6.214,3.712
		s-11.614,4.792-15.596,5.197s-3.71,2.025-4.713,6.547s-4.393,5.737-3.308,6.817c0.753,0.748,4.227,3.607,6.287,5.289
		C13.74,36.125,22.241,34,32,34c9.758,0,18.258,2.124,23.543,5.318c2.055-1.682,5.521-4.539,6.273-5.287
		c1.086-1.08-2.312-2.295-3.314-6.817S57.768,21.072,53.785,20.667z"/>
	<path d="M54,40.589C48.995,37.824,40.918,36,32,36s-16.995,1.824-22,4.589v2.878C15.321,40.753,23.139,39,32,39
		c8.861,0,16.68,1.753,22,4.467V40.589z"/>
</g>
<polygon fill="#FFFFFF" points="36.947,31.3 31.993,27.718 27.038,31.327 28.932,25.435 23.975,21.768 30.1,21.768 31.993,15.942 
	33.885,21.768 40.01,21.768 35.055,25.438 "/>
</svg>
