<?xml version="1.0" encoding="utf-8"?>
<!-- Generator: Adobe Illustrator 15.0.0, SVG Export Plug-In . SVG Version: 6.00 Build 0)  -->
<!DOCTYPE svg PUBLIC "-//W3C//DTD SVG 1.1//EN" "http://www.w3.org/Graphics/SVG/1.1/DTD/svg11.dtd">
<svg version="1.1" id="Layer_1" xmlns="http://www.w3.org/2000/svg" xmlns:xlink="http://www.w3.org/1999/xlink" x="0px" y="0px"
	 width="85.646px" height="47.648px" viewBox="0 0 85.646 47.648" enable-background="new 0 0 85.646 47.648" xml:space="preserve">
<g>
	<rect x="0" y="0" fill="#B6DCF4" width="85.646" height="11.982"/>
	<rect x="0" y="11.982" fill="#F7F7F7" width="85.646" height="24.235"/>
	<rect x="0" y="36.219" fill="#B6DCF4" width="85.646" height="11.431"/>
	<polygon fill="#EE2424" points="10.823,20.686 12.393,14.729 14.138,20.858 20.228,19.225 15.769,23.62 20.228,28.106 
		14.097,26.466 12.396,32.43 10.79,26.502 4.77,28.033 9.084,23.62 4.77,19.152 	"/>
	<polygon fill="#EE2424" points="31.043,20.686 32.612,14.729 34.357,20.858 40.447,19.225 35.988,23.62 40.447,28.106 
		34.315,26.466 32.615,32.43 31.011,26.502 24.988,28.033 29.304,23.62 24.988,19.152 	"/>
	<polygon fill="#EE2424" points="51.74,21.207 53.31,15.25 55.053,21.379 61.145,19.746 56.687,24.141 61.145,28.628 55.013,26.987 
		53.312,32.95 51.707,27.022 45.686,28.554 50.002,24.141 45.686,19.673 	"/>
	<polygon fill="#EE2424" points="71.373,21.207 72.942,15.25 74.686,21.379 80.777,19.746 76.319,24.141 80.777,28.628 
		74.646,26.987 72.944,32.95 71.34,27.022 65.318,28.554 69.635,24.141 65.318,19.673 	"/>
</g>
</svg>
