<?xml version="1.0" encoding="utf-8"?>
<!-- Generator: Adobe Illustrator 15.0.0, SVG Export Plug-In . SVG Version: 6.00 Build 0)  -->
<!DOCTYPE svg PUBLIC "-//W3C//DTD SVG 1.1//EN" "http://www.w3.org/Graphics/SVG/1.1/DTD/svg11.dtd">
<svg version="1.1" id="Capa_1" xmlns="http://www.w3.org/2000/svg" xmlns:xlink="http://www.w3.org/1999/xlink" x="0px" y="0px"
	 width="70.04px" height="70.04px" viewBox="0 0 70.04 70.04" enable-background="new 0 0 70.04 70.04" xml:space="preserve">
<g>
	<path fill="#2F343B" d="M35.318,0.924c-12.575,0-22.766,10.197-22.766,22.77c0,9.527,13.078,33.049,19.41,43.877
		c0.698,1.193,1.971,1.93,3.354,1.93c1.382,0,2.659-0.731,3.356-1.926c6.33-10.828,19.412-34.353,19.412-43.881
		C58.084,11.121,47.889,0.924,35.318,0.924z"/>
</g>
<path fill="#FFCC66" d="M40.212,44.792h-9.885c-0.467,0-0.845,0.379-0.845,0.845c0,0.467,0.378,0.844,0.845,0.844h9.885
	c0.466,0,0.844-0.377,0.844-0.844C41.056,45.171,40.678,44.792,40.212,44.792z"/>
<path fill="#FFCC66" d="M40.212,47.767h-9.885c-0.467,0-0.845,0.38-0.845,0.846c0,0.467,0.378,0.844,0.845,0.844h2.045
	c0.084,0.577,0.571,1.022,1.172,1.022h3.544c0.602,0,1.091-0.445,1.173-1.022h1.951c0.466,0,0.844-0.377,0.844-0.844
	C41.056,48.147,40.678,47.767,40.212,47.767z"/>
<g>
	<path fill="#FFFFFF" d="M35.317,12.875c-0.139,0-0.274,0.017-0.413,0.021l0.366,4.958h-5.667l-0.87,7l-5.916-1.65
		c-0.15,0.781-0.235,1.584-0.235,2.408c0,3.194,1.992,6.529,2.604,7.48c-0.016-0.021,0.903,1.435,0.903,1.435
		c1.602,2.511,3.113,4.887,3.471,7.786c0.076,0.619,0.601,1.084,1.223,1.084h9.264c0.62,0,1.146-0.465,1.223-1.081
		c0.386-3.126,1.961-5.659,3.629-8.336l0.565-0.909c0.6-0.927,2.591-4.262,2.591-7.458C48.054,18.591,42.338,12.875,35.317,12.875z"
		/>
	<path display="none" fill="#FFFFFF" d="M29.603,17.854h5.667l-0.366-4.958c-6.013,0.194-10.981,4.566-12.086,10.308l5.916,1.65
		L29.603,17.854z"/>
</g>
</svg>
