<?xml version="1.0" encoding="utf-8"?>
<!-- Generator: Adobe Illustrator 18.1.0, SVG Export Plug-In . SVG Version: 6.00 Build 0)  -->
<svg version="1.1" id="Layer_1" xmlns="http://www.w3.org/2000/svg" xmlns:xlink="http://www.w3.org/1999/xlink" x="0px" y="0px"
	 viewBox="0 0 92.7 92" enable-background="new 0 0 92.7 92" xml:space="preserve">
<path fill="#333333" d="M68.3,32.1c-0.5-4.4-1.2-7.9-2.3-9.2c-4.7-5.6-37.6-6-41.3,0c-0.9,1.5-1.6,4.9-2,9.2
	c-1.4,0.2-2.5,1.3-2.5,2.8v5.4c0,1.2,0.8,2.2,1.8,2.6c-0.3,8.5,0,17.4,0.3,21.8c0,3.4,2.3,2.8,2.3,2.8h2.2v3.7
	c0,1.5,1.5,2.6,3.4,2.6c1.9,0,3.4-1.2,3.4-2.6v-3.7h25v3.7c0,1.5,1.5,2.6,3.4,2.6c1.9,0,3.4-1.2,3.4-2.6v-3.7H66
	c0,0,2.7,0.4,2.9-1.2c0-4.4,0.3-14.2,0-23.4c1.1-0.4,2-1.4,2-2.7v-5.4C70.8,33.4,69.7,32.2,68.3,32.1z"/>
<circle fill="#CC3533" cx="45.5" cy="40" r="14.3"/>
<rect x="35.9" y="36.4" fill="none" width="22.2" height="16.6"/>
<text transform="matrix(1 0 0 1 35.8926 46.9268)" display="none" fill="#FFFFFF" font-family="'Helvetica-Oblique'" font-size="14.7733">78</text>
<polygon fill="#4A68B1" points="31.8,12 45.5,12 59.2,12 45.5,1 "/>
<circle fill="#FFFFFF" cx="57.7" cy="59.5" r="3.6"/>
<circle fill="#FFFFFF" cx="33.1" cy="59.7" r="3.6"/>
</svg>
