<?xml version="1.0" encoding="utf-8"?>
<!-- Generator: Adobe Illustrator 18.1.0, SVG Export Plug-In . SVG Version: 6.00 Build 0)  -->
<svg version="1.1" id="Layer_1" xmlns="http://www.w3.org/2000/svg" xmlns:xlink="http://www.w3.org/1999/xlink" x="0px" y="0px"
	 viewBox="0 0 612 612" enable-background="new 0 0 612 612" xml:space="preserve">
<path fill="#ED184A" d="M523.8,74.5c-40.3-30.1-85-50.4-141.4-59.7v268.7L463,171.4h88.1L449.6,312.8c0,0,23.3,37.3,37.3,59.4
	c14.3,22.3,27.9,28.4,48.6,28.4c6.2,0,6.2,0,14,0v69.5l-21.5,0.1c-44.7,0-71.6-8.1-91.8-39c-12.5-20-53.8-84.7-53.8-84.7v123.4
	h-73.6V9c-0.9,0-1.8,0-2.7,0C210.9,9,145.2,31.9,88.4,74.5C6.3,135.9,9.6,217.8,9.6,305.4c0,87.7-3.3,169.7,78.8,231.1
	c56.9,42.6,122.5,65.5,217.7,65.5c95.2,0,160.8-22.9,217.7-65.5c82-61.4,78.8-143.4,78.8-231.1C602.6,217.8,605.8,135.9,523.8,74.5z
	 M171.4,473.1c-45.9,0-83.3-8.4-113.6-39.6l47.1-47.1c15.6,15.6,42.9,21,66.9,21c29,0,42.9-9.7,42.9-26.9c0-7.2-1.7-13.1-5.9-17.7
	c-3.8-3.8-10.1-6.7-19.8-8l-36.2-5c-26.5-3.8-46.7-12.6-60.2-26.5c-13.9-14.3-20.6-34.5-20.6-60.1c0-54.7,41.2-94.7,109.4-94.7
	c42.9,0,75.3,10.1,101,35.8l-46.3,46.3c-18.9-18.9-43.8-17.7-56.8-17.7c-25.7,0-36.2,14.7-36.2,27.8c0,3.8,1.3,9.3,5.9,13.9
	c3.8,3.8,10.1,7.6,20.6,8.8l36.2,5c26.9,3.8,46.3,12.2,58.9,24.8c16,15.6,22.3,37.8,22.3,65.7C287.1,439.8,234.5,473.1,171.4,473.1z
	"/>
</svg>
