<?xml version="1.0" encoding="utf-8"?>
<!-- Generator: Adobe Illustrator 15.0.0, SVG Export Plug-In . SVG Version: 6.00 Build 0)  -->
<!DOCTYPE svg PUBLIC "-//W3C//DTD SVG 1.1//EN" "http://www.w3.org/Graphics/SVG/1.1/DTD/svg11.dtd">
<svg version="1.1" id="Capa_1" xmlns="http://www.w3.org/2000/svg" xmlns:xlink="http://www.w3.org/1999/xlink" x="0px" y="0px"
	 width="64px" height="64px" viewBox="0 0 64 64" enable-background="new 0 0 64 64" xml:space="preserve">
<g>
	<path d="M10.171,44.477c3.528,9.894,21.801,8.666,21.801,8.666s18.273,1.229,21.801-8.666C48.754,41.773,40.77,40,31.972,40
		C23.174,40,15.189,41.773,10.171,44.477z"/>
	<path fill="#333399" d="M53.757,19.667c-3.981-0.405-10.454-0.675-15.583-5.197c-5.129-4.521-6.202-3.712-6.202-3.712
		s-1.085-0.81-6.214,3.712c-5.129,4.522-11.614,4.792-15.596,5.197c-3.982,0.405-3.71,2.025-4.713,6.547
		c-1.003,4.522-4.393,5.737-3.308,6.817c0.753,0.748,4.227,3.607,6.287,5.289C13.712,35.125,22.213,33,31.972,33
		c9.758,0,18.258,2.124,23.543,5.318c2.055-1.684,5.521-4.539,6.272-5.287c1.086-1.08-2.312-2.295-3.313-6.817
		S57.738,20.072,53.757,19.667z"/>
	<path d="M53.973,39.589C48.967,36.824,40.891,35,31.972,35c-8.918,0-16.995,1.824-22,4.589v2.878
		c5.321-2.714,13.139-4.467,22-4.467c8.861,0,16.68,1.753,22,4.467V39.589z"/>
</g>
<polygon fill="#FFFFFF" points="36.919,30.3 31.965,26.718 27.01,30.327 28.904,24.435 23.947,20.768 30.072,20.768 31.965,14.942 
	33.855,20.768 39.98,20.768 35.025,24.438 "/>
</svg>
