<?xml version="1.0" encoding="utf-8"?>
<!-- Generator: Adobe Illustrator 15.0.0, SVG Export Plug-In . SVG Version: 6.00 Build 0)  -->
<!DOCTYPE svg PUBLIC "-//W3C//DTD SVG 1.1//EN" "http://www.w3.org/Graphics/SVG/1.1/DTD/svg11.dtd">
<svg version="1.1"
	 id="svg2" xmlns:sodipodi="http://sodipodi.sourceforge.net/DTD/sodipodi-0.dtd" xmlns:dc="http://purl.org/dc/elements/1.1/" sodipodi:version="0.32" xmlns:svg="http://www.w3.org/2000/svg" inkscape:version="0.48.2 r9819" sodipodi:docname="AJAX.svg" inkscape:output_extension="org.inkscape.output.svg.inkscape" xmlns:rdf="http://www.w3.org/1999/02/22-rdf-syntax-ns#" xmlns:cc="http://creativecommons.org/ns#" xmlns:inkscape="http://www.inkscape.org/namespaces/inkscape"
	 xmlns="http://www.w3.org/2000/svg" xmlns:xlink="http://www.w3.org/1999/xlink" x="0px" y="0px" width="838.408px"
	 height="716.515px" viewBox="0 0 838.408 716.515" enable-background="new 0 0 838.408 716.515" xml:space="preserve">
<defs>
	
	
		<inkscape:perspective  id="perspective11" inkscape:vp_z="557.25 : 238 : 1" sodipodi:type="inkscape:persp3d" inkscape:vp_y="0 : 1000 : 0" inkscape:persp3d-origin="278.625 : 158.66667 : 1" inkscape:vp_x="0 : 238 : 1">
		</inkscape:perspective>
</defs>
<sodipodi:namedview  width="557.25px" height="476px" id="base" inkscape:zoom="0.5354386" inkscape:cy="457.17619" pagecolor="#ffffff" guidetolerance="10" inkscape:cx="-132.40772" borderopacity="1.0" inkscape:window-maximized="1" gridtolerance="10000" inkscape:window-y="-8" inkscape:document-units="px" inkscape:window-x="-8" showgrid="false" inkscape:pageshadow="2" inkscape:pageopacity="0.0" bordercolor="#666666" fit-margin-left="0" inkscape:window-height="1004" inkscape:current-layer="layer1" inkscape:window-width="1280" showborder="false" inkscape:showpageshadow="false" fit-margin-top="0" fit-margin-right="0" fit-margin-bottom="0" objecttolerance="10">
	</sodipodi:namedview>
<g id="layer1" transform="translate(1.532973,1.5000144)" inkscape:label="Layer 1" inkscape:groupmode="layer">
	<path id="path1954" inkscape:connector-curvature="0" fill="#FFFFFF" stroke="#000000" stroke-width="4" d="M422.969,0.729
		c10.432,1.242,20.021,5.668,27.201,12.555c3.122,2.994,4.869,5.252,7.748,10.018c0.753,1.248,1.506,2.443,1.674,2.658
		c0.167,0.215,77.522,129.932,171.901,288.26S808.779,611.621,815.73,623.271c12.259,20.545,14.276,24.046,15.604,27.076
		c1.45,3.311,2.66,7.479,3.233,11.145c0.407,2.604,0.411,9.312,0.007,12.037c-1.815,12.244-8.087,22.951-17.732,30.274
		c-6.848,5.199-14.469,7.914-25.147,8.959c-2.168,0.212-42.562,0.238-374.016,0.238c-331.453,0-371.849-0.026-374.017-0.238
		c-10.679-1.045-18.3-3.76-25.147-8.959c-8.621-6.546-14.672-15.986-17.051-26.601c-0.787-3.512-0.959-5.241-0.964-9.692
		c-0.005-4.63,0.175-6.25,1.107-10.005c0.943-3.802,2.13-6.849,4.213-10.824c0.643-1.226,6.855-11.761,13.807-23.41
		c6.951-11.65,89.857-150.724,184.237-309.052c94.379-158.328,171.734-288.045,171.902-288.26c0.167-0.215,0.92-1.41,1.674-2.658
		c2.879-4.766,4.625-7.023,7.748-10.018c7.254-6.959,16.862-11.361,27.438-12.57C415.165,0.422,420.466,0.43,422.969,0.729
		L422.969,0.729z"/>
	<path id="path2002" inkscape:connector-curvature="0" fill="#C0111E" d="M421.148,14.725c9.141,0.91,18.06,5.65,23.189,12.322
		c0.701,0.912,58.418,97.441,162.095,271.098C694.986,446.471,778.366,586.13,791.723,608.5
		c13.355,22.368,24.753,41.583,25.328,42.699c1.864,3.623,3.014,7.053,3.522,10.511c0.282,1.919,0.323,6.269,0.078,8.227
		c-1.417,11.29-8.608,21.236-18.784,25.98c-2.899,1.351-6.016,2.192-10.144,2.74c-2.043,0.271-16.084,0.281-374.037,0.281
		c-357.952,0-371.992-0.011-374.036-0.281c-4.128-0.548-7.244-1.39-10.143-2.74c-10.177-4.744-17.368-14.69-18.784-25.98
		c-0.246-1.958-0.205-6.308,0.077-8.227c0.509-3.458,1.658-6.888,3.522-10.511c0.575-1.116,11.973-20.331,25.329-42.699
		c13.355-22.369,96.736-162.028,185.291-310.354C332.62,124.489,390.338,27.959,391.039,27.047
		c6.556-8.527,18.621-13.465,30.108-12.32V14.725z"/>
	<path id="path3821" inkscape:connector-curvature="0" fill="#FFFFFF" d="M420.964,174.57c3.022,0.319,6.333,1.276,8.62,2.491
		c1.725,0.915,3.886,2.565,5.892,4.497c4.039,3.891,7.096,8.189,12.338,17.353c2.442,4.268,218.513,370.739,223.008,378.236
		c4.596,7.667,6.574,11.492,8.107,15.671c1.396,3.803,1.991,6.863,1.992,10.255c0.001,2.663-0.28,4.44-1.083,6.849
		c-2.115,6.344-6.354,12.02-11.104,14.87c-3.002,1.8-7.824,3.274-13.192,4.032c-2.063,0.292-10.161,0.302-237.871,0.302
		c-227.708,0-235.807-0.01-237.869-0.302c-5.368-0.758-10.19-2.232-13.191-4.032c-4.753-2.851-8.991-8.526-11.106-14.87
		c-0.803-2.408-1.082-4.186-1.082-6.849c0.001-3.392,0.596-6.452,1.991-10.255c1.533-4.179,3.513-8.004,8.108-15.671
		c4.494-7.497,220.565-373.968,223.008-378.236c5.243-9.164,8.299-13.462,12.338-17.353c3.871-3.729,7.161-5.577,11.59-6.509
		C414.343,174.441,418.005,174.256,420.964,174.57L420.964,174.57z"/>
	<g id="g3197" transform="translate(0.5,0.5000018)">
	</g>
</g>
<path fill="#333333" d="M582.254,508.757"/>
<g>
	<g>
		<defs>
			
				<rect id="SVGID_1_" x="366.65" y="365.234" transform="matrix(-0.9695 0.2452 -0.2452 -0.9695 993.3191 745.2707)" width="167.25" height="138.448"/>
		</defs>
		<clipPath id="SVGID_2_">
			<use xlink:href="#SVGID_1_"  overflow="visible"/>
		</clipPath>
		<path clip-path="url(#SVGID_2_)" fill="#333333" d="M533.35,421.117c-0.806-3.186-2.303-6.057-4.308-8.518
			c-0.312-0.68-0.646-1.347-1.016-2.012l-22.936-31.379l-0.179-0.293c-8.646-13.445-19.108-25.26-36.906-20.76l-68.051,17.209
			c-18.247,4.613-21.163,20.17-22.594,35.722l-5.896,38.753c-1.269,3.963-1.49,8.178-0.441,12.324l2.75,10.875
			c0.426,1.686,1.038,3.273,1.817,4.767c-0.127,1.045-0.071,2.14,0.201,3.219l8.18,32.345c1.199,4.742,6.009,7.611,10.752,6.412
			l17.829-4.509c4.732-1.196,7.61-6.01,6.411-10.751l-4.089-16.172l93.36-23.609l4.09,16.172c1.199,4.742,6.01,7.611,10.752,6.412
			l16.808-4.25c4.742-1.199,7.611-6.011,6.412-10.752l-8.18-32.346c-0.272-1.08-0.745-2.068-1.354-2.928
			c-0.023-1.684-0.239-3.372-0.666-5.059L533.35,421.117z M388.705,411.944c1.611-17.253,4.9-23.239,14.039-25.55l68.051-17.208
			c9.067-2.293,15.473,1.829,24.448,15.745l15.562,18.253c-3.667-0.396-7.544-0.152-11.43,0.831l-106.59,26.953
			c-3.502,0.886-6.701,2.297-9.521,4.086L388.705,411.944z M412.215,467.719l-18.803,4.755c-3.382,0.854-6.825-1.198-7.684-4.591
			c-0.855-3.384,1.198-6.827,4.581-7.683l18.802-4.754c3.393-0.858,6.825,1.197,7.681,4.581
			C417.649,463.421,415.607,466.861,412.215,467.719L412.215,467.719z M478.327,449.691l-43.735,11.06
			c-2.145,0.543-4.317-0.755-4.861-2.907c-0.543-2.145,0.752-4.318,2.897-4.861l43.734-11.059c2.143-0.542,4.318,0.754,4.86,2.898
			C481.767,446.974,480.47,449.15,478.327,449.691L478.327,449.691z M518.075,440.95l-18.801,4.754
			c-3.384,0.855-6.826-1.197-7.684-4.591c-0.855-3.383,1.196-6.826,4.58-7.682l18.801-4.754c3.383-0.855,6.826,1.197,7.683,4.581
			C523.512,436.651,521.458,440.094,518.075,440.95L518.075,440.95z M518.075,440.95"/>
	</g>
</g>
<path fill="#333333" d="M548.319,508.761H475.42c0,0-19.288-0.641-36.007,16.078l-0.478,0.484
	c-10.44,8.428-23.718,13.48-38.183,13.48c-14.562,0-27.918-5.117-38.392-13.646l-0.626-0.453
	c-15.69-16.01-35.856-15.943-35.856-15.943h-72.691v83.805h295.132h30.935v-83.805H548.319z"/>
</svg>
