<?xml version="1.0" encoding="utf-8"?>
<!-- Generator: Adobe Illustrator 15.0.0, SVG Export Plug-In . SVG Version: 6.00 Build 0)  -->
<!DOCTYPE svg PUBLIC "-//W3C//DTD SVG 1.1//EN" "http://www.w3.org/Graphics/SVG/1.1/DTD/svg11.dtd">
<svg version="1.1" id="Capa_1" xmlns="http://www.w3.org/2000/svg" xmlns:xlink="http://www.w3.org/1999/xlink" x="0px" y="0px"
	 width="70.04px" height="70.04px" viewBox="0 0 70.04 70.04" enable-background="new 0 0 70.04 70.04" xml:space="preserve">
<circle fill="#2F343B" cx="34.98" cy="34.979" r="33.98"/>
<g>
	<path fill="#FFFFFF" d="M34.977,11.545c-0.183,0-0.354,0.022-0.534,0.027l0.473,6.42h-7.339l-1.125,9.066l-7.662-2.135
		c-0.195,1.011-0.304,2.051-0.304,3.118c0,4.136,2.58,8.455,3.372,9.685c-0.02-0.026,1.17,1.86,1.17,1.86
		c2.077,3.253,4.031,6.332,4.496,10.086c0.098,0.8,0.78,1.402,1.584,1.402h11.998c0.801,0,1.484-0.603,1.584-1.398
		c0.502-4.049,2.539-7.331,4.701-10.795l0.729-1.177c0.779-1.203,3.357-5.523,3.357-9.661
		C51.471,18.948,44.071,11.545,34.977,11.545z"/>
	<path fill="#FFCC66" d="M41.381,52.995H28.58c-0.605,0-1.095,0.49-1.095,1.097c0,0.604,0.489,1.093,1.095,1.093h12.801
		c0.604,0,1.094-0.489,1.094-1.093C42.475,53.485,41.985,52.995,41.381,52.995z"/>
	<path fill="#FFCC66" d="M41.381,56.847H28.58c-0.605,0-1.095,0.494-1.095,1.099c0,0.604,0.489,1.092,1.095,1.092h2.647
		c0.11,0.745,0.741,1.322,1.518,1.322h4.591c0.779,0,1.412-0.577,1.518-1.322h2.527c0.604,0,1.094-0.488,1.094-1.092
		C42.475,57.341,41.985,56.847,41.381,56.847z"/>
</g>
</svg>
